<svg xmlns="http://www.w3.org/2000/svg" xmlns:xlink="http://www.w3.org/1999/xlink" preserveAspectRatio="xMidYMid" width="118" height="36" viewBox="0 0 118 36">
  <path d="M105.647,1.889 C100.634,1.889 96.654,4.887 96.654,9.125 C96.654,18.945 117.586,13.777 117.586,26.646 C117.586,30.523 115.106,36.001 105.802,36.001 C100.427,36.001 96.241,33.675 93.760,30.523 C93.760,30.523 95.104,29.334 95.104,29.334 C97.223,31.918 100.841,34.451 105.802,34.451 C113.762,34.451 115.777,29.902 115.777,26.646 C115.777,15.276 94.845,20.909 94.845,9.125 C94.845,3.543 99.962,0.339 105.647,0.339 C110.712,0.339 114.382,2.199 116.811,5.197 C116.811,5.197 115.519,6.386 115.519,6.386 C113.090,3.233 109.627,1.889 105.647,1.889 ZM79.650,0.907 C79.650,0.907 81.304,0.907 81.304,0.907 C81.304,0.907 81.304,35.381 81.304,35.381 C81.304,35.381 79.650,35.381 79.650,35.381 C79.650,35.381 79.650,0.907 79.650,0.907 ZM68.621,27.507 C68.621,27.507 63.393,27.228 63.393,27.228 C63.393,27.228 64.691,26.601 64.691,26.601 C64.691,26.601 65.332,26.292 65.332,26.292 C65.332,26.292 54.402,19.492 54.402,19.492 C54.402,19.492 54.402,31.188 54.402,31.188 C54.402,31.188 54.667,31.014 54.667,31.014 C54.667,31.014 56.060,30.099 56.060,30.099 C56.060,30.099 53.368,35.489 53.368,35.489 C53.368,35.489 50.676,33.633 50.676,33.633 C50.676,33.633 52.069,32.718 52.069,32.718 C52.069,32.718 52.748,32.273 52.748,32.273 C52.748,32.273 52.748,19.331 52.748,19.331 C52.748,19.331 41.388,26.398 41.388,26.398 C41.388,26.398 41.959,26.683 41.959,26.683 C41.959,26.683 43.228,27.314 43.228,27.314 C43.228,27.314 38.115,27.594 38.115,27.594 C38.115,27.594 38.325,24.875 38.325,24.875 C38.325,24.875 39.594,25.506 39.594,25.506 C39.594,25.506 40.201,25.808 40.201,25.808 C40.201,25.808 52.515,18.285 52.515,18.285 C52.515,18.285 40.155,10.698 40.155,10.698 C40.155,10.698 39.870,10.842 39.870,10.842 C39.870,10.842 38.893,11.340 38.893,11.340 C38.893,11.340 38.732,9.195 38.732,9.195 C38.732,9.195 42.669,9.417 42.669,9.417 C42.669,9.417 41.692,9.914 41.692,9.914 C41.692,9.914 41.368,10.079 41.368,10.079 C41.368,10.079 52.748,17.187 52.748,17.187 C52.748,17.187 52.748,3.987 52.748,3.987 C52.748,3.987 52.069,4.428 52.069,4.428 C52.069,4.428 50.676,5.333 50.676,5.333 C50.676,5.333 53.368,-0.001 53.368,-0.001 C53.368,-0.001 56.060,1.836 56.060,1.836 C56.060,1.836 54.667,2.741 54.667,2.741 C54.667,2.741 54.402,2.913 54.402,2.913 C54.402,2.913 54.402,17.026 54.402,17.026 C54.402,17.026 65.309,10.213 65.309,10.213 C65.309,10.213 64.877,9.999 64.877,9.999 C64.877,9.999 63.878,9.505 63.878,9.505 C63.878,9.505 67.904,9.285 67.904,9.285 C67.904,9.285 67.848,10.004 67.848,10.004 C67.848,10.004 67.866,10.004 67.866,10.004 C67.866,10.004 67.847,10.016 67.847,10.016 C67.847,10.016 67.738,11.415 67.738,11.415 C67.738,11.415 66.739,10.921 66.739,10.921 C66.739,10.921 66.534,10.819 66.534,10.819 C66.534,10.819 54.402,18.244 54.402,18.244 C54.402,18.244 54.402,18.276 54.402,18.276 C54.402,18.276 66.536,25.710 66.536,25.710 C66.536,25.710 67.109,25.433 67.109,25.433 C67.109,25.433 68.407,24.806 68.407,24.806 C68.407,24.806 68.578,26.961 68.578,26.961 C68.578,26.961 68.641,27.000 68.641,27.000 C68.641,27.000 68.581,27.000 68.581,27.000 C68.581,27.000 68.621,27.507 68.621,27.507 ZM24.967,26.129 C24.967,26.129 5.741,26.129 5.741,26.129 C5.741,26.129 1.916,35.381 1.916,35.381 C1.916,35.381 0.004,35.381 0.004,35.381 C0.004,35.381 14.372,0.907 14.372,0.907 C14.372,0.907 16.336,0.907 16.336,0.907 C16.336,0.907 30.704,35.381 30.704,35.381 C30.704,35.381 28.792,35.381 28.792,35.381 C28.792,35.381 24.967,26.129 24.967,26.129 ZM15.354,2.819 C15.354,2.819 6.361,24.579 6.361,24.579 C6.361,24.579 24.347,24.579 24.347,24.579 C24.347,24.579 15.354,2.819 15.354,2.819 Z" id="path-1" fill="#ccd8db" fill-rule="evenodd"/>
</svg>
