<svg xmlns="http://www.w3.org/2000/svg" xmlns:xlink="http://www.w3.org/1999/xlink" preserveAspectRatio="xMidYMid" width="215" height="87" viewBox="0 0 215 87">
  <path d="M215.011,36.092 C215.011,36.092 212.738,36.092 212.738,36.092 C212.738,36.092 199.097,18.879 199.097,18.879 C199.097,18.879 185.456,36.092 185.456,36.092 C185.456,36.092 183.183,36.092 183.183,36.092 C183.183,36.092 198.122,17.580 198.122,17.580 C198.122,17.580 183.995,-0.013 183.995,-0.013 C183.995,-0.013 186.322,-0.013 186.322,-0.013 C186.322,-0.013 199.097,16.172 199.097,16.172 C199.097,16.172 211.871,-0.013 211.871,-0.013 C211.871,-0.013 214.199,-0.013 214.199,-0.013 C214.199,-0.013 200.071,17.525 200.071,17.525 C200.071,17.525 215.011,36.092 215.011,36.092 ZM189.984,58.512 C189.984,58.512 193.869,63.349 193.869,63.349 C193.869,63.349 190.169,66.733 190.169,66.733 C190.169,66.733 186.971,62.768 186.971,62.768 C186.971,62.768 184.856,64.671 184.856,64.671 C184.856,64.671 184.856,79.895 184.856,79.895 C184.856,79.895 187.473,81.878 187.473,81.878 C187.473,81.878 189.984,79.895 189.984,79.895 C189.984,79.895 190.724,80.741 190.724,80.741 C190.724,80.741 184.195,86.054 184.195,86.054 C183.050,84.909 181.949,84.010 180.891,83.358 C179.834,82.741 178.724,82.318 177.561,82.089 C177.561,82.089 177.561,81.534 177.561,81.534 C178.319,81.023 178.812,80.477 179.041,79.895 C179.288,79.296 179.411,78.389 179.411,77.173 C179.411,77.173 179.411,66.283 179.411,66.283 C179.411,65.173 179.332,64.398 179.173,63.957 C179.015,63.552 178.653,63.121 178.090,62.662 C178.090,62.662 176.530,63.957 176.530,63.957 C176.530,63.957 175.896,63.217 175.896,63.217 C175.896,63.217 181.235,58.645 181.235,58.645 C183.032,59.579 184.310,61.006 185.068,62.926 C185.068,62.926 189.984,58.512 189.984,58.512 ZM150.975,-0.013 C150.975,-0.013 173.060,-0.013 173.060,-0.013 C173.060,-0.013 173.060,1.611 173.060,1.611 C173.060,1.611 152.707,1.611 152.707,1.611 C152.707,1.611 152.707,16.713 152.707,16.713 C152.707,16.713 172.681,16.713 172.681,16.713 C172.681,16.713 172.681,18.337 172.681,18.337 C172.681,18.337 152.707,18.337 152.707,18.337 C152.707,18.337 152.707,34.468 152.707,34.468 C152.707,34.468 173.060,34.468 173.060,34.468 C173.060,34.468 173.060,36.092 173.060,36.092 C173.060,36.092 150.975,36.092 150.975,36.092 C150.975,36.092 150.975,-0.013 150.975,-0.013 ZM159.921,62.583 C159.921,62.583 158.097,64.169 158.097,64.169 C158.097,64.169 158.097,79.710 158.097,79.710 C158.097,79.710 160.529,81.640 160.529,81.640 C160.529,81.640 164.282,78.151 164.282,78.151 C164.282,78.151 164.282,64.169 164.282,64.169 C164.282,64.169 162.432,62.583 162.432,62.583 C162.432,62.583 166.793,58.645 166.793,58.645 C166.793,58.645 171.339,62.583 171.339,62.583 C171.339,62.583 169.568,64.169 169.568,64.169 C169.568,64.169 169.568,78.494 169.568,78.494 C169.568,79.622 169.656,80.336 169.833,80.635 C170.132,81.200 170.520,81.481 170.996,81.481 C171.313,81.481 171.718,81.305 172.211,80.953 C172.211,80.953 173.004,81.878 173.004,81.878 C173.004,81.878 167.612,86.054 167.612,86.054 C167.612,86.054 166.952,85.552 166.952,85.552 C165.877,84.706 165.163,83.922 164.811,83.199 C164.441,82.477 164.256,81.455 164.256,80.133 C164.256,79.869 164.264,79.675 164.282,79.552 C164.282,79.552 157.199,86.054 157.199,86.054 C155.066,84.028 153.093,82.644 151.278,81.904 C151.278,81.904 151.278,81.190 151.278,81.190 C152.000,80.926 152.441,80.600 152.600,80.212 C152.758,79.807 152.837,78.882 152.837,77.437 C152.837,77.437 152.837,64.354 152.837,64.354 C152.837,64.354 151.701,63.508 151.701,63.508 C151.701,63.508 150.617,64.354 150.617,64.354 C150.617,64.354 149.904,63.508 149.904,63.508 C149.904,63.508 155.428,58.645 155.428,58.645 C155.428,58.645 159.921,62.583 159.921,62.583 ZM144.527,81.746 C144.527,81.746 146.219,80.371 146.219,80.371 C146.219,80.371 147.012,81.270 147.012,81.270 C147.012,81.270 141.276,86.054 141.276,86.054 C139.479,84.151 137.373,82.873 134.959,82.221 C134.959,82.221 134.959,81.508 134.959,81.508 C135.452,81.155 135.822,80.794 136.069,80.424 C136.316,80.072 136.475,79.596 136.545,78.997 C136.615,78.451 136.651,77.561 136.651,76.327 C136.651,76.327 136.651,62.662 136.651,62.662 C136.651,62.662 134.325,62.662 134.325,62.662 C134.325,62.662 134.325,61.737 134.325,61.737 C134.325,61.737 141.990,51.640 141.990,51.640 C141.990,51.640 141.990,59.728 141.990,59.728 C141.990,59.728 146.510,59.728 146.510,59.728 C146.510,59.728 146.510,62.662 146.510,62.662 C146.510,62.662 141.990,62.662 141.990,62.662 C141.990,62.662 141.990,79.869 141.990,79.869 C142.942,80.503 143.787,81.129 144.527,81.746 ZM126.508,36.092 C126.508,36.092 124.776,36.092 124.776,36.092 C124.776,36.092 124.776,1.611 124.776,1.611 C124.776,1.611 112.596,1.611 112.596,1.611 C112.596,1.611 112.596,-0.013 112.596,-0.013 C112.596,-0.013 138.741,-0.013 138.741,-0.013 C138.741,-0.013 138.741,1.611 138.741,1.611 C138.741,1.611 126.508,1.611 126.508,1.611 C126.508,1.611 126.508,36.092 126.508,36.092 ZM113.222,59.068 C114.315,60.002 115.011,60.733 115.310,61.261 C115.628,61.808 115.786,62.548 115.786,63.482 C115.786,63.482 115.786,64.116 115.786,64.116 C115.786,64.116 122.500,58.645 122.500,58.645 C122.500,58.645 126.412,62.504 126.412,62.504 C126.412,62.504 128.949,60.098 128.949,60.098 C128.949,60.098 129.715,60.971 129.715,60.971 C128.922,61.693 128.332,62.345 127.945,62.926 C127.575,63.508 127.319,64.187 127.178,64.962 C127.037,65.772 126.967,66.777 126.967,67.975 C126.967,67.975 126.967,77.067 126.967,77.067 C126.967,77.790 126.975,78.336 126.993,78.706 C127.010,79.076 127.041,79.420 127.086,79.737 C127.129,80.054 127.178,80.310 127.231,80.503 C127.425,81.067 127.760,81.349 128.235,81.349 C128.570,81.349 128.984,81.138 129.478,80.715 C129.513,80.697 129.548,80.671 129.583,80.635 C129.618,80.600 129.653,80.574 129.689,80.556 C129.724,80.539 129.759,80.512 129.795,80.477 C129.830,80.442 129.865,80.415 129.900,80.397 C129.900,80.397 130.561,81.428 130.561,81.428 C130.561,81.428 124.879,86.054 124.879,86.054 C124.879,86.054 124.323,85.525 124.323,85.525 C123.407,84.662 122.781,83.983 122.447,83.490 C122.112,83.014 121.900,82.389 121.812,81.613 C121.707,80.838 121.654,79.649 121.654,78.045 C121.654,78.045 121.654,64.512 121.654,64.512 C121.654,64.512 119.513,62.345 119.513,62.345 C119.513,62.345 115.786,65.437 115.786,65.437 C115.786,65.437 115.786,80.265 115.786,80.265 C115.786,80.265 117.663,82.248 117.663,82.248 C117.663,82.248 112.958,86.054 112.958,86.054 C112.958,86.054 108.385,82.089 108.385,82.089 C108.385,82.089 110.500,80.160 110.500,80.160 C110.500,80.160 110.500,66.336 110.500,66.336 C110.500,64.803 110.412,63.869 110.236,63.534 C109.989,63.129 109.698,62.926 109.363,62.926 C109.046,62.926 108.579,63.112 107.963,63.482 C107.963,63.482 107.355,62.689 107.355,62.689 C107.355,62.689 112.720,58.645 112.720,58.645 C112.720,58.645 113.222,59.068 113.222,59.068 ZM94.340,80.212 C95.979,81.005 97.538,81.798 99.018,82.591 C99.018,82.591 102.904,79.948 102.904,79.948 C102.904,79.948 103.432,80.688 103.432,80.688 C103.432,80.688 95.556,86.054 95.556,86.054 C92.490,84.133 89.723,82.979 87.256,82.591 C87.256,82.591 87.256,82.036 87.256,82.036 C87.996,81.596 88.481,81.076 88.710,80.477 C88.939,79.895 89.054,78.803 89.054,77.199 C89.054,77.199 89.054,67.578 89.054,67.578 C89.054,66.239 88.965,65.402 88.789,65.067 C88.595,64.715 88.155,64.539 87.468,64.539 C87.468,64.539 87.256,64.539 87.256,64.539 C87.256,64.539 87.018,63.957 87.018,63.957 C87.018,63.957 87.653,63.693 87.653,63.693 C89.943,62.689 91.723,61.861 92.992,61.208 C94.366,60.504 95.882,59.649 97.538,58.645 C97.538,58.645 104.146,67.103 104.146,67.103 C104.146,67.103 94.340,75.243 94.340,75.243 C94.340,75.243 94.340,80.212 94.340,80.212 ZM99.838,68.926 C99.838,68.926 94.340,61.896 94.340,61.896 C94.340,61.896 94.340,73.473 94.340,73.473 C94.340,73.473 99.838,68.926 99.838,68.926 ZM100.470,36.092 C100.470,36.092 89.482,20.503 89.482,20.503 C89.482,20.503 80.821,20.503 80.821,20.503 C80.821,20.503 80.821,36.092 80.821,36.092 C80.821,36.092 79.089,36.092 79.089,36.092 C79.089,36.092 79.089,-0.013 79.089,-0.013 C79.089,-0.013 91.539,-0.013 91.539,-0.013 C97.385,-0.013 102.203,3.614 102.203,10.218 C102.203,16.822 97.385,20.503 91.539,20.503 C91.539,20.503 102.690,36.092 102.690,36.092 C102.690,36.092 100.470,36.092 100.470,36.092 ZM100.308,10.218 C100.308,5.238 96.844,1.611 91.539,1.611 C91.539,1.611 80.821,1.611 80.821,1.611 C80.821,1.611 80.821,18.879 80.821,18.879 C80.821,18.879 91.539,18.879 91.539,18.879 C96.844,18.879 100.308,15.198 100.308,10.218 ZM80.532,63.957 C80.655,64.680 80.717,66.151 80.717,68.371 C80.717,68.371 80.717,81.375 80.717,81.375 C78.955,81.851 77.466,82.433 76.250,83.120 C75.035,83.807 73.766,84.785 72.444,86.054 C71.176,84.979 70.074,84.168 69.140,83.622 C68.118,83.023 67.079,82.574 66.022,82.274 C65.035,81.992 63.881,81.825 62.559,81.772 C62.559,81.772 62.559,81.190 62.559,81.190 C63.281,80.873 63.731,80.450 63.907,79.922 C64.101,79.393 64.198,78.354 64.198,76.803 C64.198,76.803 64.198,67.420 64.198,67.420 C64.198,66.081 64.145,65.173 64.039,64.697 C63.934,64.222 63.607,63.587 63.061,62.794 C62.515,61.931 62.136,61.208 61.925,60.627 C61.731,60.098 61.634,59.500 61.634,58.830 C61.634,57.455 62.101,56.196 63.035,55.050 C63.986,53.887 65.369,52.812 67.185,51.825 C67.185,51.825 67.713,52.565 67.713,52.565 C66.744,53.306 66.074,53.940 65.704,54.468 C65.299,55.033 65.097,55.588 65.097,56.134 C65.097,56.574 65.202,56.971 65.414,57.323 C65.590,57.676 65.986,58.187 66.603,58.856 C67.678,59.984 68.436,60.944 68.876,61.737 C69.281,62.548 69.510,63.473 69.563,64.512 C69.563,64.512 76.515,58.645 76.515,58.645 C78.048,59.825 79.061,60.821 79.554,61.631 C80.083,62.460 80.409,63.235 80.532,63.957 ZM75.405,68.318 C75.405,66.592 75.290,65.437 75.061,64.856 C74.814,64.222 74.215,63.482 73.264,62.636 C73.264,62.636 69.563,65.755 69.563,65.755 C69.563,65.755 69.563,79.102 69.563,79.102 C71.960,80.089 73.907,80.953 75.405,81.693 C75.405,81.693 75.405,68.318 75.405,68.318 ZM43.471,-0.013 C43.471,-0.013 65.556,-0.013 65.556,-0.013 C65.556,-0.013 65.556,1.611 65.556,1.611 C65.556,1.611 45.203,1.611 45.203,1.611 C45.203,1.611 45.203,16.713 45.203,16.713 C45.203,16.713 65.177,16.713 65.177,16.713 C65.177,16.713 65.177,18.337 65.177,18.337 C65.177,18.337 45.203,18.337 45.203,18.337 C45.203,18.337 45.203,34.468 45.203,34.468 C45.203,34.468 65.556,34.468 65.556,34.468 C65.556,34.468 65.556,36.092 65.556,36.092 C65.556,36.092 43.471,36.092 43.471,36.092 C43.471,36.092 43.471,-0.013 43.471,-0.013 ZM56.337,59.147 C56.337,59.147 56.575,60.098 56.575,60.098 C56.099,60.574 55.791,61.121 55.650,61.737 C55.491,62.371 55.412,63.394 55.412,64.803 C55.412,64.803 55.412,81.693 55.412,81.693 C55.412,81.693 54.725,81.957 54.725,81.957 C53.086,82.627 51.773,83.235 50.787,83.781 C49.835,84.327 48.725,85.085 47.456,86.054 C45.518,84.679 43.826,83.710 42.382,83.146 C40.901,82.583 39.201,82.230 37.280,82.089 C37.280,82.089 37.280,81.481 37.280,81.481 C37.985,80.829 38.434,80.151 38.628,79.446 C38.787,78.759 38.866,77.226 38.866,74.847 C38.866,74.847 38.866,62.768 38.866,62.768 C41.086,62.257 42.804,61.526 44.020,60.574 C44.020,60.574 37.280,55.473 37.280,55.473 C37.280,55.473 37.280,49.262 37.280,49.262 C37.280,49.262 53.641,61.341 53.641,61.341 C54.258,60.336 55.156,59.605 56.337,59.147 ZM50.099,65.120 C50.099,65.120 45.738,61.843 45.738,61.843 C45.263,62.248 44.813,62.601 44.390,62.900 C44.390,62.900 44.390,78.838 44.390,78.838 C44.390,78.838 50.099,81.534 50.099,81.534 C50.099,81.534 50.099,65.120 50.099,65.120 ZM24.847,84.494 C24.389,83.983 24.063,83.305 23.869,82.459 C23.675,81.596 23.552,80.459 23.499,79.049 C23.499,79.049 14.380,86.239 14.380,86.239 C12.988,85.252 11.825,84.468 10.891,83.886 C9.922,83.288 8.891,82.723 7.799,82.195 C7.218,81.878 6.513,81.578 5.685,81.296 C4.892,81.032 4.284,80.900 3.861,80.900 C3.544,80.900 3.270,81.015 3.041,81.243 C2.777,81.473 2.645,81.746 2.645,82.063 C2.645,82.310 2.856,82.768 3.279,83.437 C3.614,83.931 3.781,84.380 3.781,84.785 C3.781,85.155 3.658,85.463 3.411,85.710 C3.129,85.957 2.794,86.080 2.407,86.080 C1.914,86.080 1.482,85.851 1.112,85.393 C0.742,84.935 0.557,84.389 0.557,83.754 C0.557,83.032 0.751,82.274 1.138,81.481 C1.543,80.635 2.275,79.455 3.332,77.939 C3.332,77.939 7.244,72.310 7.244,72.310 C5.764,71.376 4.530,70.319 3.544,69.138 C2.539,68.010 1.755,66.768 1.191,65.411 C0.645,64.107 0.372,62.733 0.372,61.288 C0.372,59.543 0.742,57.896 1.482,56.345 C2.186,54.795 3.191,53.411 4.495,52.195 C5.799,50.997 7.279,50.055 8.936,49.367 C10.627,48.698 12.354,48.363 14.116,48.363 C16.776,48.363 19.376,48.997 21.913,50.266 C22.900,50.777 24.151,51.579 25.666,52.671 C26.882,51.455 27.895,50.539 28.706,49.922 C29.340,49.464 30.221,49.015 31.349,48.574 C31.349,48.574 31.904,49.473 31.904,49.473 C30.266,50.372 29.164,51.288 28.600,52.222 C28.036,53.156 27.755,54.539 27.755,56.372 C27.755,56.742 27.772,57.402 27.807,58.354 C27.807,58.354 28.680,76.671 28.680,76.671 C28.750,78.715 28.891,79.939 29.103,80.345 C29.402,80.962 29.790,81.270 30.266,81.270 C30.653,81.270 31.323,80.873 32.274,80.080 C32.274,80.080 33.120,81.032 33.120,81.032 C33.120,81.032 26.988,86.239 26.988,86.239 C26.037,85.604 25.323,85.023 24.847,84.494 ZM13.006,52.830 C10.028,52.830 7.517,53.702 5.473,55.446 C3.447,57.209 2.433,59.385 2.433,61.975 C2.433,63.121 2.654,64.222 3.094,65.279 C3.517,66.407 4.134,67.438 4.944,68.371 C5.790,69.341 6.821,70.257 8.037,71.120 C8.037,71.120 15.385,60.548 15.385,60.548 C14.310,59.843 13.297,59.490 12.345,59.490 C11.587,59.490 10.927,59.640 10.363,59.940 C9.852,60.204 9.253,60.777 8.565,61.658 C8.565,61.658 7.640,61.261 7.640,61.261 C8.328,59.482 9.182,58.187 10.204,57.376 C11.191,56.566 12.451,56.160 13.984,56.160 C15.164,56.160 16.521,56.363 18.054,56.768 C18.054,56.768 19.587,54.548 19.587,54.548 C17.561,53.403 15.367,52.830 13.006,52.830 ZM22.415,56.636 C21.781,56.054 21.173,55.570 20.592,55.182 C20.592,55.182 10.521,69.534 10.521,69.534 C10.521,69.534 22.970,69.534 22.970,69.534 C22.970,69.534 22.415,56.636 22.415,56.636 ZM23.235,73.340 C23.235,73.340 7.878,73.340 7.878,73.340 C7.878,73.340 5.764,76.380 5.764,76.380 C5.764,76.380 18.160,81.640 18.160,81.640 C18.160,81.640 23.420,77.569 23.420,77.569 C23.420,77.569 23.235,73.340 23.235,73.340 ZM15.053,36.092 C15.053,36.092 0.005,-0.013 0.005,-0.013 C0.005,-0.013 2.007,-0.013 2.007,-0.013 C2.007,-0.013 16.081,34.089 16.081,34.089 C16.081,34.089 30.155,-0.013 30.155,-0.013 C30.155,-0.013 32.158,-0.013 32.158,-0.013 C32.158,-0.013 17.110,36.092 17.110,36.092 C17.110,36.092 15.053,36.092 15.053,36.092 ZM203.633,61.208 C205.007,60.504 206.522,59.649 208.179,58.645 C208.179,58.645 214.787,67.103 214.787,67.103 C214.787,67.103 204.981,75.243 204.981,75.243 C204.981,75.243 204.981,80.212 204.981,80.212 C206.620,81.005 208.179,81.798 209.659,82.591 C209.659,82.591 213.545,79.948 213.545,79.948 C213.545,79.948 214.073,80.688 214.073,80.688 C214.073,80.688 206.197,86.054 206.197,86.054 C203.131,84.133 200.364,82.979 197.897,82.591 C197.897,82.591 197.897,82.036 197.897,82.036 C198.637,81.596 199.122,81.076 199.351,80.477 C199.580,79.895 199.695,78.803 199.695,77.199 C199.695,77.199 199.695,67.578 199.695,67.578 C199.695,66.239 199.606,65.402 199.430,65.067 C199.236,64.715 198.796,64.539 198.109,64.539 C198.109,64.539 197.897,64.539 197.897,64.539 C197.897,64.539 197.659,63.957 197.659,63.957 C197.659,63.957 198.294,63.693 198.294,63.693 C200.584,62.689 202.364,61.861 203.633,61.208 ZM204.981,73.473 C204.981,73.473 210.478,68.926 210.478,68.926 C210.478,68.926 204.981,61.896 204.981,61.896 C204.981,61.896 204.981,73.473 204.981,73.473 Z" id="path-1" fill="#ccd8db" fill-rule="evenodd"/>
</svg>
